Coordinates
version=1
nRows=32
nColumns=22
inDegrees=yes

Units are S.I. units (second, meters, Newtons, ...)
If the header above contains a line with 'inDegrees', this indicates whether rotational values are in degrees (yes) or radians (no).

endheader
time	pelvis_tilt	pelvis_list	pelvis_rotation	pelvis_tx	pelvis_ty	pelvis_tz	hip_flexion_r	hip_adduction_r	hip_rotation_r	knee_angle_r	ankle_angle_r	subtalar_angle_r	hip_flexion_l	hip_adduction_l	hip_rotation_l	knee_angle_l	ankle_angle_l	subtalar_angle_l	lumbar_extension	lumbar_bending	lumbar_rotation
      4.08000000	     -6.81520093	     -3.91497685	      2.82505271	     -0.69241727	      0.96421427	     -0.26003276	      4.16986861	      3.86546558	     -3.83723724	    -22.65655982	     14.57677831	      6.21513580	     19.67020168	     -2.08262989	     11.22726774	    -18.16184728	      8.55059207	     -7.57946610	      2.53744150	      3.48456489	     -1.55653043
      4.09000000	     -6.94215465	     -3.82145762	      2.64556451	     -0.69847588	      0.96376884	     -0.25793187	      4.17887156	      3.91643203	     -4.02766741	    -21.78220296	     14.93772220	      5.60830534	     20.15425380	     -2.12185431	     11.14185768	    -18.14661796	      8.46361623	     -7.48327085	      2.45938786	      3.41667386	     -1.36175656
      4.10000000	     -7.06750930	     -3.73819742	      2.45537364	     -0.70454444	      0.96338602	     -0.25585854	      4.26507305	      3.98097233	     -4.19724523	    -21.03478001	     15.25868748	      5.02086429	     20.60767058	     -2.18464433	     11.02465031	    -18.08291438	      8.43494015	     -7.36650016	      2.37126018	      3.36609078	     -1.17006649
      4.11000000	     -7.17978747	     -3.67672662	      2.26302538	     -0.71062025	      0.96308120	     -0.25381879	      4.40565307	      4.06947612	     -4.33859251	    -20.40114631	     15.54439516	      4.46910486	     21.02303473	     -2.27982286	     10.89858296	    -17.97630781	      8.46336168	     -7.23549037	      2.26171069	      3.34194131	     -0.97541050
      4.12000000	     -7.28718450	     -3.63354354	      2.09196931	     -0.71667293	      0.96287187	     -0.25185989	      4.58254553	      4.17666038	     -4.45196779	    -19.83734428	     15.74211111	      3.87877392	     21.40261287	     -2.39387306	     10.78252682	    -17.81438300	      8.52864284	     -7.06180939	      2.14562905	      3.34111393	     -0.82692434
      4.13000000	     -7.38501940	     -3.60922054	      1.93863603	     -0.72268409	      0.96276234	     -0.24996923	      4.78678151	      4.29881060	     -4.53302963	    -19.34150458	     15.87460208	      3.35166454	     21.74120785	     -2.53030796	     10.66134600	    -17.59902085	      8.64401974	     -6.87385830	      2.02023780	      3.36037723	     -0.70507346
      4.14000000	     -7.47442458	     -3.61291622	      1.80274829	     -0.72864348	      0.96275511	     -0.24817823	      5.01092842	      4.43986541	     -4.58052801	    -18.90080428	     15.95160485	      2.94011724	     22.04417361	     -2.69451754	     10.53990563	    -17.33908493	      8.80533844	     -6.69455635	      1.88864719	      3.41733333	     -0.61020182
      4.15000000	     -7.56435067	     -3.63836043	      1.69655976	     -0.73452281	      0.96284516	     -0.24647667	      5.25220187	      4.59536947	     -4.60288376	    -18.49623817	     15.96830267	      2.56910064	     22.31784195	     -2.87605898	     10.42939431	    -17.03215425	      9.00616374	     -6.49002985	      1.76632219	      3.49745946	     -0.56584864
      4.16000000	     -7.65740517	     -3.65956933	      1.63889512	     -0.74030630	      0.96302496	     -0.24491179	      5.51724628	      4.72971614	     -4.64425912	    -18.13938057	     15.91757070	      2.14290084	     22.56831874	     -3.03909386	     10.32990174	    -16.68487416	      9.25628295	     -6.18316789	      1.65973607	      3.57073292	     -0.57819735
      4.17000000	     -7.74036724	     -3.73037848	      1.59797529	     -0.74597823	      0.96331943	     -0.24342118	      5.77752462	      4.90656448	     -4.64931756	    -17.80155414	     15.81680324	      1.91196186	     22.78928771	     -3.25178616	     10.21307600	    -16.31575150	      9.50994294	     -5.92947478	      1.55451222	      3.70054994	     -0.61143174
      4.18000000	     -7.80333883	     -3.82673089	      1.58362647	     -0.75150280	      0.96374073	     -0.24203800	      6.01299975	      5.09772498	     -4.63801244	    -17.47110939	     15.66516095	      1.85160875	     22.96776639	     -3.48283019	     10.07983909	    -15.92922314	      9.74164308	     -5.79840170	      1.44406387	      3.86089458	     -0.67742022
      4.19000000	     -7.89411238	     -3.92245688	      1.62216552	     -0.75691357	      0.96418887	     -0.24079009	      6.30127018	      5.27018119	     -4.68726598	    -17.19303490	     15.47415960	      1.69733885	     23.18047990	     -3.68876269	      9.94603511	    -15.57217901	     10.02539990	     -5.41418759	      1.38335357	      4.01419377	     -0.80083841
      4.20000000	     -7.94424544	     -4.03136614	      1.66874722	     -0.76213782	      0.96478950	     -0.23962695	      6.53284282	      5.45067755	     -4.69247127	    -16.90826684	     15.24071956	      1.70235897	     23.31678859	     -3.90634082	      9.78217311	    -15.19952190	     10.19969923	     -5.25443093	      1.29551870	      4.18455842	     -0.93360428
      4.21000000	     -8.00183392	     -4.14156947	      1.75297552	     -0.76721693	      0.96542198	     -0.23859484	      6.78416717	      5.61752684	     -4.74240878	    -16.65796378	     14.98618885	      1.71397655	     23.47102200	     -4.10202617	      9.60802486	    -14.88907847	     10.37919217	     -4.98683942	      1.23606144	      4.35407148	     -1.10408595
      4.22000000	     -8.05981822	     -4.21292964	      1.86148391	     -0.77213493	      0.96608610	     -0.23769080	      7.05396119	      5.72749535	     -4.83965719	    -16.45826747	     14.73687715	      1.73750404	     23.62603795	     -4.23940628	      9.40051902	    -14.64491910	     10.55172603	     -4.54580946	      1.19519911	      4.47688328	     -1.29003847
      4.23000000	     -8.07843984	     -4.28975134	      1.97049734	     -0.77687138	      0.96683865	     -0.23688318	      7.26847762	      5.84278854	     -4.89067330	    -16.25272134	     14.46720873	      1.79579684	     23.72605017	     -4.37437708	      9.17592622	    -14.45279988	     10.61141143	     -4.33993328	      1.12649779	      4.61197340	     -1.47781383
      4.24000000	     -8.09950883	     -4.32377066	      2.10080348	     -0.78145417	      0.96757519	     -0.23618679	      7.50524159	      5.89909805	     -5.00298521	    -16.10053437	     14.22046031	      1.86005528	     23.84602357	     -4.44576378	      8.92535358	    -14.37805889	     10.67348346	     -3.95406280	      1.07579041	      4.69207757	     -1.67516588
      4.25000000	     -8.06659502	     -4.32034637	      2.21558710	     -0.78584526	      0.96838185	     -0.23557320	      7.67920251	      5.91699873	     -5.08008684	    -15.96126324	     13.96653412	      1.90063641	     23.88646397	     -4.47665544	      8.65957042	    -14.37254024	     10.63833013	     -3.88578235	      0.97589903	      4.73303667	     -1.84383392
      4.26000000	     -8.06012555	     -4.36872011	      2.35250340	     -0.79013825	      0.96909457	     -0.23502656	      7.89071607	      5.98663667	     -5.17663923	    -15.84345299	     13.70732343	      1.94412280	     23.99665903	     -4.53851761	      8.45624567	    -14.51924069	     10.67644545	     -3.51565442	      0.91841894	      4.82872616	     -2.04753357
      4.27000000	     -8.01311198	     -4.33137943	      2.46584402	     -0.79424034	      0.96982621	     -0.23457347	      8.06890185	      5.95973739	     -5.27675492	    -15.77270533	     13.49465798	      1.94295749	     24.03965549	     -4.51478482	      8.21229851	    -14.75141332	     10.66666861	     -3.21006617	      0.82352575	      4.83076494	     -2.20710699
      4.28000000	     -7.93161890	     -4.28641422	      2.56344639	     -0.79816952	      0.97055643	     -0.23415841	      8.19732824	      5.93040389	     -5.33801810	    -15.69944607	     13.28121430	      1.95725215	     24.03109555	     -4.48397257	      8.00173254	    -15.06749910	     10.61045040	     -3.16303569	      0.70006238	      4.82320289	     -2.34355202
      4.29000000	     -7.85247366	     -4.28367807	      2.66848550	     -0.80200245	      0.97118267	     -0.23379656	      8.34847092	      5.94148948	     -5.43857007	    -15.66649824	     13.06958250	      1.89061698	     24.05706138	     -4.48294807	      7.86767377	    -15.53014859	     10.67437036	     -2.87836506	      0.58696253	      4.86094397	     -2.49221213
      4.30000000	     -7.74976631	     -4.21808872	      2.73354506	     -0.80564401	      0.97181184	     -0.23347254	      8.45936402	      5.88928148	     -5.48074888	    -15.63593712	     12.87546854	      1.88471857	     24.00573108	     -4.42952994	      7.72988902	    -16.02283810	     10.64460196	     -2.83146513	      0.45693173	      4.82927714	     -2.59408486
      4.31000000	     -7.64532700	     -4.20993590	      2.81225715	     -0.80919072	      0.97234084	     -0.23317274	      8.57655993	      5.89908235	     -5.55263646	    -15.62181890	     12.66315876	      1.70207531	     23.97708225	     -4.42341171	      7.68562375	    -16.63397638	     10.74310459	     -2.47788653	      0.33425386	      4.85689163	     -2.71178835
      4.32000000	     -7.51654992	     -4.15466158	      2.84436248	     -0.81255978	      0.97284861	     -0.23289251	      8.67486270	      5.85691337	     -5.59566578	    -15.64920022	     12.50829137	      1.68147015	     23.87184778	     -4.38483085	      7.62393195	    -17.26484275	     10.81412066	     -2.45460930	      0.19329952	      4.83324450	     -2.77978280
      4.33000000	     -7.37718856	     -4.16675108	      2.90194313	     -0.81581399	      0.97329347	     -0.23264972	      8.74630692	      5.88919272	     -5.65164454	    -15.65027906	     12.30880747	      1.48622250	     23.76265901	     -4.40011787	      7.67613117	    -17.96907400	     10.97218170	     -2.20033397	      0.05589589	      4.88239287	     -2.87842079
      4.34000000	     -7.23602012	     -4.12003503	      2.91456896	     -0.81892001	      0.97369271	     -0.23240427	      8.83459562	      5.85460249	     -5.68908358	    -15.71277295	     12.18210158	      1.45051489	     23.60582376	     -4.37254723	      7.67406598	    -18.68567963	     11.10998307	     -2.17578538	     -0.07596270	      4.86110987	     -2.92763894
      4.35000000	     -7.06683491	     -4.15988462	      2.96389035	     -0.82189613	      0.97406349	     -0.23219053	      8.87012398	      5.91694539	     -5.74140448	    -15.73637440	     12.01541400	      1.26160054	     23.41657975	     -4.41662038	      7.80272212	    -19.44013782	     11.33340822	     -1.95417096	     -0.22021130	      4.93339457	     -3.00938669
      4.36000000	     -6.90487510	     -4.15225418	      2.99893110	     -0.82472727	      0.97440217	     -0.23199367	      8.91053636	      5.92734344	     -5.77834105	    -15.77748054	     11.85581991	      1.07168889	     23.20331798	     -4.42007210	      7.87439056	    -20.20667526	     11.53678303	     -1.73864069	     -0.34385271	      4.94654326	     -3.08922860
      4.37000000	     -6.73320846	     -4.16224638	      3.03091150	     -0.82743565	      0.97469914	     -0.23180967	      8.94957219	      5.95200779	     -5.82572744	    -15.85057964	     11.75970145	      0.98149400	     22.95871462	     -4.44332451	      7.95913732	    -20.98532317	     11.76881908	     -1.65340378	     -0.46519831	      4.97433403	     -3.14467803
      4.38000000	     -6.54793211	     -4.18028585	      3.09002062	     -0.82998970	      0.97500483	     -0.23168105	      8.94382734	      5.98655259	     -5.86934892	    -15.88308411	     11.61156205	      0.82541698	     22.68300497	     -4.46895803	      8.04151188	    -21.77232288	     11.99746538	     -1.47243664	     -0.58263604	      5.00953560	     -3.25422220
      4.39000000	     -6.36526852	     -4.20712352	      3.14349139	     -0.83242907	      0.97526229	     -0.23156806	      8.95419039	      6.02573006	     -5.92225250	    -15.95686401	     11.53765430	      0.73286063	     22.39005181	     -4.50790556	      8.10677918	    -22.56184050	     12.24493399	     -1.38900483	     -0.68539979	      5.04927181	     -3.32214883
